<svg width="18" height="18" viewBox="0 0 18 18" fill="none" xmlns="http://www.w3.org/2000/svg">
<path d="M16.5 12H15.5C15.3674 12 15.2402 12.0527 15.1464 12.1464C15.0527 12.2402 15 12.3674 15 12.5V15H3V12.5C3 12.3674 2.94732 12.2402 2.85355 12.1464C2.75979 12.0527 2.63261 12 2.5 12H1.5C1.36739 12 1.24021 12.0527 1.14645 12.1464C1.05268 12.2402 1 12.3674 1 12.5V16.5C1 16.6326 1.05268 16.7598 1.14645 16.8536C1.24021 16.9473 1.36739 17 1.5 17H16.5C16.6326 17 16.7598 16.9473 16.8536 16.8536C16.9473 16.7598 17 16.6326 17 16.5V12.5C17 12.3674 16.9473 12.2402 16.8536 12.1464C16.7598 12.0527 16.6326 12 16.5 12Z" fill="white"/>
<path d="M8.825 13.428C8.87173 13.4738 8.93456 13.4995 9 13.4995C9.06544 13.4995 9.12827 13.4738 9.175 13.428L12.898 9.6655C12.9634 9.5935 12.9998 9.49978 13 9.4025C13.0003 9.34968 12.9902 9.29731 12.9702 9.24843C12.9502 9.19954 12.9207 9.15511 12.8834 9.11768C12.8461 9.08026 12.8018 9.0506 12.753 9.0304C12.7042 9.0102 12.6518 8.99987 12.599 9H10V1.5C10 1.36739 9.94732 1.24021 9.85355 1.14645C9.75979 1.05268 9.63261 1 9.5 1H8.5C8.36739 1 8.24021 1.05268 8.14645 1.14645C8.05268 1.24021 8 1.36739 8 1.5V9H5.401C5.34818 8.99987 5.29585 9.0102 5.24704 9.0304C5.19823 9.0506 5.1539 9.08026 5.11662 9.11768C5.07934 9.15511 5.04984 9.19954 5.02982 9.24843C5.00981 9.29731 4.99967 9.34968 5 9.4025C5.00023 9.49978 5.03658 9.5935 5.102 9.6655L8.825 13.428Z" fill="white"/>
</svg>
